<?xml version="1.0" encoding="UTF-8"?>
<svg id="Capa_2" data-name="Capa 2" xmlns="http://www.w3.org/2000/svg" viewBox="0 0 512 512">
  <defs>
    <style>
      .cls-1 {
        stroke: #000;
        stroke-miterlimit: 10;
      }
    </style>
  </defs>
  <g id="Capa_1-2" data-name="Capa 1">
    <path class="cls-1" d="M256,.5C114.89.5.5,114.89.5,256s114.39,255.5,255.5,255.5,255.5-114.39,255.5-255.5S397.11.5,256,.5ZM406,261.29c-1.99,4.48-3.23,8.7-6.46,12.58-3.24,3.91-12.18,9.68-17.27,9.68h-8.49l.02,92.88c-1.49,15.4-13.11,26.95-28.14,29.57h-53.89c-3.82-1.7-6.53-4.05-7.03-8.49-1.57-23.42,2.09-49.57.03-72.67-.53-5.98-5.2-11-10.92-12.51-4.92-1.3-31.84-1.28-36.54.23-4.88,1.58-8.6,5.74-9.82,10.68l-.15,73.67c-.48,4.84-2.73,7.2-7.02,9.09h-55.06c-14.43-3.45-25.52-14.45-26.97-29.57l.02-92.88h-8.49c-18.15,0-31.09-28.35-19.28-42.72,42.95-44.03,86.51-87.81,130.68-130.6,10.82-6.48,23.3-5.43,33,2.53l125.06,125.08c3.45,3.93,4.97,8.69,6.73,13.48v9.96Z"/>
  </g>
</svg>