<?xml version="1.0" encoding="UTF-8"?>
<svg id="Capa_2" data-name="Capa 2" xmlns="http://www.w3.org/2000/svg" viewBox="0 0 383.37 383.29">
  <defs>
    <style>
      .cls-1 {
        fill: #040404;
      }
    </style>
  </defs>
  <g id="Capa_1-2" data-name="Capa 1">
    <g>
      <path class="cls-1" d="M383.37,199.87v6.74c-2.79,7.45-5.2,11.98-12.73,15.33l-112.09,35.74-12.86,37.47c-6.15,3.17-10.77.93-9.59-6.41.95-5.88,9.3-31.09,11.96-36.68,1.63-3.42,2.77-3.73,6.17-5.06,35.78-13.96,76.19-22.1,112.33-35.89,6.57-2.57,7.63-10.97,1.37-14.87-82.66-28.49-165.32-57.29-248.35-84.64-6.53,1.14-10.25,6.09-8.33,12.71l84.36,243.48c5.77,7.14,12.28,5.12,15.62-2.87,6.24-14.92,9.34-32.75,15.8-47.82,3.69-5.88,12.52-.91,10.05,5.55-6.02,14.96-9.21,31.99-15.37,46.76-7.06,16.95-26.66,18.7-36.35,3.38-25.81-75.85-53.73-151.12-78.95-227.18-1.94-5.84-7.46-19.39-7.46-24.71,0-11.32,11.49-21.81,22.81-20.58,84.76,28.14,169.66,56.69,253.64,86.94,4.56,3.13,6.27,7.6,7.98,12.6Z"/>
      <path class="cls-1" d="M106.42.03c2.66,1.27,7.97,1.25,10.48,0,.99.06,2.01-.08,2.99,0,20.49,1.65,43.42,10.28,59.82,22.89,2.13,1.64,8.73,6.95,9.83,8.88,2.9,5.04-2.14,10.61-7.34,8.08C138.66-2,66.18,3.32,30.5,52.48c-40.59,55.93-13,134.74,52.88,153.57,4.56,1.3,18,2.9,20.45,4.25,4.77,2.64,3.76,10.41-3.78,10.57-24.54.54-57.26-19.87-72.97-37.87C-32.67,114.5,12.73,8.12,101.92.03h4.49Z"/>
      <path class="cls-1" d="M383.37,60.65v24.7c-1.74,3.68-8.93,4.38-10.67.57-.99-2.16-.9-19.3-.59-22.69.69-7.56,7.46-8.77,11.26-2.58Z"/>
      <path class="cls-1" d="M383.37,98.83v2.99c-1.97,5.63-10.91,5.16-11.3-1.12-.44-7.14,9.08-8.86,11.3-1.87Z"/>
      <path class="cls-1" d="M116.9.03c-2.51,1.25-7.82,1.27-10.48,0h10.48Z"/>
      <path class="cls-1" d="M83,36.12c5.8-1.25,9.95,4.17,6.55,8.8-1.55,2.1-10.99,5.8-14.06,7.64-46.84,28.14-42.5,98.32,7.21,120.49,5.15,2.3,18.41,3.88,15.54,11.49-2.53,6.7-10.34,2.71-15.23.92C27.57,165.1,13.32,91.97,57,52.03c5.22-4.77,19.34-14.48,26-15.91Z"/>
      <path class="cls-1" d="M338.99,58.62c1.85,2.29.63,7.4.98,10.26,4.02-2.08,10.34-10.83,14.2-11.64s7.39,3.62,6.62,7.35c-.67,3.26-13.64,12.58-16.28,16-.41,2.42,16.17,14.59,17.51,18.27,1.98,5.45-3.7,9.26-8.86,6.6-3.36-1.73-9.38-10.75-12.08-11.87-1.53-.64-1.06,1.04-1.11,1.85-.29,4.12,1.49,9.98-4.17,10.83-3.48.52-5.22-.54-6.72-3.67l-.17-41.42c.9-4.35,7.44-5.84,10.09-2.56Z"/>
      <path class="cls-1" d="M219.96,61.63c2.18,2.42,2.01,6.97-.83,8.8-4.92,3.18-10.71-5.32-20.17-.71-13.93,6.79-6.45,28.86,9.32,25.03,4.32-1.05,7.86-9.33,13.43-2.31,5.27,6.66-7.35,13.26-13.11,13.85-31.96,3.25-38.31-39.61-11.57-48.25,6.16-1.99,18.36-1.52,22.95,3.58Z"/>
      <path class="cls-1" d="M300.11,57.1c5.86-.8,24.08,1.33,20,11.02-2.92,6.92-12.29-.85-18.51.2-17.33,2.92-12.48,31.33,6.21,26.41,3.84-1.01,8.44-9.05,13.06-2.62,4.48,6.24-6.01,13.12-11.39,14.03-35.07,5.91-40.49-44.77-9.36-49.03Z"/>
      <path class="cls-1" d="M241.15,95.08c3.54.26,9.41-1.03,11.89,1.96s1.33,8.53-2.55,9.25c-2.79.52-17.28.39-19.04-1.13-.56-.48-.94-1.11-1.19-1.8v-43.53c1.63-4.97,10.9-2.69,10.9,1.19v34.06Z"/>
      <path class="cls-1" d="M110.37,40.98c-3.05-3.06-1.56-8.13,2.39-9.59,3.02-1.12,14.09,1,17.74,1.81,7.92,1.75,18.67,5.97,25.25,10.68,3.16,2.26,5.58,4.8,3.11,8.97-3.69,6.22-10.36-.42-14.25-2.31-6.91-3.36-12.48-5.41-20.09-6.86-3.54-.68-12.14-.68-14.15-2.69Z"/>
      <path class="cls-1" d="M263.08,105.34c-.84-.68-1.6-2.73-1.75-3.86-1.54-12.3,1.19-27.77.05-40.43,2.06-5.8,10.2-5.4,11.17.77.94,6.04.95,33.57,0,39.58-.71,4.49-6.01,6.72-9.47,3.93Z"/>
    </g>
  </g>
</svg>