<?xml version="1.0" encoding="UTF-8"?>
<svg id="Capa_2" data-name="Capa 2" xmlns="http://www.w3.org/2000/svg" viewBox="0 0 511.28 512">
  <defs>
    <style>
      .cls-1 {
        stroke: #000;
        stroke-miterlimit: 10;
      }
    </style>
  </defs>
  <g id="Capa_1-2" data-name="Capa 1">
    <path class="cls-1" d="M255.64.5C114.73.5.5,114.89.5,256s114.23,255.5,255.14,255.5,255.14-114.39,255.14-255.5S396.55.5,255.64.5ZM323.05,171.36c3.53-4.38,17.95-18.25,22.5-21.58,1.46-1.07,3.44-2.14,5.26-2.44,11.84-1.93,21.31,9.18,15.49,19.46-4.13,7.3-19.03,16.97-24.73,24.05-13.49,7.77-28.1-7.6-18.52-19.49ZM242.02,117.24c.98-4.44,6.37-8.91,10.98-9.61,7.32-1.11,15.54,3.76,16.36,11.08.65,5.82.86,27.3-.27,32.55-2.85,13.27-25.67,12.76-27.34-1.47-.65-5.57-.83-27.56.27-32.55ZM153.99,147.34c3.73-.61,7.77-.16,10.92,1.91,3.22,2.12,21.42,19.61,23.7,22.73,4.66,6.38,2.15,16.81-5.67,19.82-3.9,1.5-9.36,1.33-13.02-.74-2.53-1.43-22.58-20.57-24.44-23.18-5.27-7.37-.71-19.04,8.51-20.55ZM114.21,268.09c-15.85-1.36-15.88-24.04-1.63-26.36,6.32-1.03,26.06-.75,32.89-.16,16.12,1.38,15.82,24.53,1.12,26.45-6.97.91-25.11.7-32.38.07ZM189.28,336.59c-4.13,7.3-19.03,16.97-24.73,24.05-12.14,7.04-26.51-5.82-19.74-17.78,1.59-2.8,20.42-20.85,23.72-23.29,1.09-.81,3.37-2.2,4.65-2.45,12.46-2.42,22.19,8.71,16.1,19.47ZM269.09,392.42c-1.1,4.97-6.37,8.37-11.14,9.75h-6c-4.26-2.22-9.16-5.16-10.06-10.21-1.01-5.68-.85-26.07-.15-32.09,1.73-14.77,26.18-14.97,27.63.55.56,6.06.89,26.65-.29,32ZM186.03,287.84c-24.05-46.69,8.83-102.99,62.8-107.09,65.84-5,108.35,65.73,69.62,117.42-34,45.37-106.66,39.69-132.42-10.34ZM346.57,360.64c-2.88-1.76-21.95-20.07-24.06-22.97-5.14-7.04-1.32-19.04,7.91-20.55,4.03-.66,8.14-.36,11.52,1.91,3.26,2.19,21.5,19.65,23.7,22.74,8.37,11.7-6.59,26.5-19.07,18.86ZM409.18,258.28c-2.31,4.08-5.38,8.79-10.65,9.65-5.93.97-27.18.82-33.46.14-15.38-1.66-15.38-24.82,0-26.48,6.29-.68,27.54-.83,33.46.14,5.29.86,8.79,5.8,10.65,10.22v6.33Z"/>
  </g>
</svg>