<?xml version="1.0" encoding="UTF-8"?>
<svg id="Capa_2" data-name="Capa 2" xmlns="http://www.w3.org/2000/svg" viewBox="0 0 512.03 512">
  <defs>
    <style>
      .cls-1 {
        stroke: #000;
        stroke-miterlimit: 10;
      }
    </style>
  </defs>
  <g id="Capa_1-2" data-name="Capa 1">
    <g>
      <rect class="cls-1" x="227.34" y="127.44" width="57.65" height="15.26"/>
      <path class="cls-1" d="M260.18.53C119.08-1.76,2.83,110.75.53,251.84c-2.3,141.09,110.22,257.33,251.32,259.63,141.1,2.3,257.34-110.22,259.64-251.31C513.8,119.07,401.28,2.83,260.18.53ZM427.77,360.57c-2.34,4.84-3.28,10.09-6.15,14.79-5.85,9.56-17.38,17.45-28.38,18.5l-273.52.04c-15.68-.24-35.17-19.7-35.17-35.76v-117.61l161.21,55.52c6,2.08,11.63,2.48,17.81,1.06l164.21-56.58v120.03ZM427.77,217.64c-1.32-.18-2.47.3-3.7.67-56.46,17.01-111.98,41.18-168.73,57.47l-170.49-58.8c.34-23.53-5.64-48.34,14.13-65.23,3.78-3.23,14.05-9.04,18.75-9.04h80.44c.07,0,1.01-.97,1.01-1.04v-19.43c0-9.21,13.67-22.9,22.76-23.63,21.24.64,44.38-1.92,65.42-.34,10.5.79,25.78,12.49,25.78,23.97v19.43c0,.07.93,1.04,1.01,1.04h80.44c1.26,0,7.63,2.27,9.23,2.94,12.89,5.43,20.91,18.07,23.96,31.75v40.24Z"/>
    </g>
  </g>
</svg>