<?xml version="1.0" encoding="UTF-8"?>
<svg id="Capa_2" data-name="Capa 2" xmlns="http://www.w3.org/2000/svg" viewBox="0 0 383.05 383.27">
  <defs>
    <style>
      .cls-1 {
        fill: #010101;
      }
    </style>
  </defs>
  <g id="Capa_1-2" data-name="Capa 1">
    <path class="cls-1" d="M383.05,187.91v8.23c-2.89,5.31-6.71,11.43-13.28,12.55-7.39,1.26-33.9,1.06-41.74.18-19.19-2.16-19.19-32.28,0-34.44,7.84-.88,34.35-1.08,41.74.18,6.59,1.12,10.97,7.55,13.28,13.29Z"/>
    <path class="cls-1" d="M194.41,383.27h-7.49c-5.31-2.89-11.43-6.71-12.55-13.28-1.26-7.39-1.06-33.9-.18-41.74,2.16-19.21,32.66-19.47,34.47.72.7,7.88,1.11,34.66-.36,41.62-1.37,6.47-7.94,10.89-13.89,12.68Z"/>
    <path d="M183.04,95.31c82.12-6.5,135.16,85.49,86.84,152.71-42.41,59.01-133.04,51.62-165.18-13.44-30-60.73,11.01-133.94,78.34-139.27Z"/>
    <path class="cls-1" d="M284.79,272.67c5.02-.86,10.15-.46,14.37,2.49s26.82,25.56,29.57,29.57c10.44,15.22-8.22,34.46-23.78,24.53-3.59-2.29-27.38-26.11-30.01-29.87-6.41-9.15-1.64-24.76,9.86-26.72Z"/>
    <path class="cls-1" d="M64.72,51.85c4.65-.79,9.69-.21,13.62,2.49s26.72,25.51,29.57,29.57c5.82,8.3,2.68,21.87-7.07,25.77-4.87,1.95-11.67,1.73-16.25-.96-3.15-1.85-28.16-26.75-30.49-30.15-6.57-9.59-.89-24.77,10.61-26.72Z"/>
    <path class="cls-1" d="M310.24,51.85c14.77-2.51,26.58,11.94,19.32,25.31-5.16,9.49-23.74,22.06-30.85,31.28-16.83,10.1-35.05-9.88-23.1-25.35,4.4-5.69,22.39-23.73,28.07-28.07,1.82-1.39,4.3-2.79,6.56-3.17Z"/>
    <path class="cls-1" d="M88.66,272.66c15.54-3.15,27.68,11.33,20.08,25.32-5.15,9.49-23.74,22.06-30.85,31.28-15.14,9.16-33.07-7.57-24.62-23.12,1.98-3.64,25.48-27.12,29.59-30.3,1.36-1.05,4.2-2.86,5.8-3.18Z"/>
    <path class="cls-1" d="M13.07,174.61c7.89-1.34,32.51-.97,41.02-.21,20.1,1.79,19.74,31.9,1.4,34.4-8.69,1.18-31.32.9-40.39.1-19.77-1.76-19.81-31.26-2.04-34.28Z"/>
    <path class="cls-1" d="M188.23.21c9.13-1.45,19.38,4.89,20.41,14.41.82,7.57,1.07,35.51-.33,42.34-3.55,17.26-32.02,16.6-34.1-1.91-.82-7.24-1.04-35.85.33-42.34,1.22-5.77,7.95-11.59,13.7-12.5Z"/>
  </g>
</svg>