<?xml version="1.0" encoding="UTF-8"?>
<svg id="Capa_2" data-name="Capa 2" xmlns="http://www.w3.org/2000/svg" viewBox="0 0 511.16 511.05">
  <g id="Capa_1-2" data-name="Capa 1">
    <path d="M511.16,247.57v16.97c-3.4,7.64-5.5,14.82-11,21.44s-20.76,16.49-29.42,16.49h-14.47l.04,158.23c-2.54,26.23-22.33,45.91-47.94,50.37h-91.82c-6.5-2.9-11.13-6.91-11.98-14.47-2.67-39.9,3.56-84.45.04-123.8-.91-10.19-8.85-18.74-18.61-21.31-8.38-2.21-54.25-2.19-62.26.4-8.32,2.69-14.65,9.78-16.74,18.19l-.25,125.51c-.82,8.25-4.66,12.26-11.97,15.48h-93.82c-24.58-5.88-43.49-24.61-45.95-50.37l.04-158.23h-14.47c-30.92,0-52.97-48.29-32.85-72.77C80.9,154.68,155.13,80.1,230.39,7.22c18.44-11.04,39.7-9.26,56.23,4.3l213.08,213.08c5.88,6.7,8.47,14.8,11.47,22.97Z"/>
  </g>
</svg>