<?xml version="1.0" encoding="UTF-8"?>
<svg id="Capa_2" data-name="Capa 2" xmlns="http://www.w3.org/2000/svg" viewBox="0 0 343.51 296.15">
  <defs>
    <style>
      .cls-1 {
        fill: #020202;
      }
    </style>
  </defs>
  <g id="Capa_1-2" data-name="Capa 1">
    <path class="cls-1" d="M207.78,248.5l11.37,23.88c1.62,1.02,28.89-.46,34.01.12,13.11,1.5,14.6,19.79,1.9,23.65H88.51c-12.7-3.86-11.22-22.15,1.9-23.65,5.12-.58,32.38.89,34.01-.12l11.37-23.88H38.65C21.74,248.5.94,227.58.12,210.54l-.12-170.93C2.04,20.56,16.56,5.24,35.11,1.21c91.12-1.5,182.87-1.76,273.96.13,18.16,4.11,31.92,19.09,34.45,37.55v170.98c-.67,17.43-21.29,38.64-38.61,38.64h-97.12ZM42.61,24.46c-9.93,1.2-17.12,7.36-18.59,17.41v165.76c1.56,9.62,9.51,16.28,19.1,16.9h257.3c9.8-.61,18.1-7.75,19.13-17.62V42.6c-1.22-11.5-9.59-17.5-20.63-18.37l-256.32.24Z"/>
    <path d="M184.69,52.38c2.8.08,3.81,1.91,4.26,4.46l2.14,9.71c2.8.7,5.45,1.96,8.03,3.24l6.7-4.5c3.77-2.34,5.51-3.34,9.18-.42,5.34,4.24,11.95,10.94,16.25,16.25,2.93,3.62,1.96,5.35-.3,9l-4.62,6.85c1.27,2.65,2.43,5.36,3.39,8.13l9.7,2.1c2.31.42,4.15,1.43,4.32,3.96v26.72c-.3,2.57-2.6,3.41-4.86,3.81l-9.22,1.98c-.75,2.54-2.09,5.48-3.33,8.11l4.62,6.85c2.5,4.05,3.16,5.58-.06,9.43-4.38,5.23-10.56,11.59-15.89,15.82-3.67,2.92-5.41,1.92-9.18-.42l-6.7-4.5c-2.56,1.28-5.19,2.49-7.96,3.25-.87,3.37-1.65,6.77-2.32,10.21-.77,2.49-1.26,3.76-4.15,3.96h-26.44c-2.33-.28-3.29-2.2-3.68-4.32l-2.16-9.86c-2.78-.81-5.45-1.89-8.01-3.24l-6.64,4.45c-4.01,2.48-5.64,3.4-9.47.29-5.31-4.3-11.74-10.76-16.04-16.07-2.93-3.62-1.96-5.35.3-9l4.62-6.85c-1.27-2.65-2.43-5.36-3.4-8.13-3.2-.75-6.42-1.44-9.66-2.07-2.05-.35-4.14-1.42-4.36-3.7v-27c.3-2.57,2.6-3.41,4.86-3.81l9.22-1.98c.75-2.54,2.09-5.48,3.33-8.11l-4.62-6.85c-2.26-3.65-3.22-5.38-.3-9,4.29-5.31,10.73-11.78,16.04-16.07,3.83-3.1,5.46-2.19,9.47.29l6.64,4.45c2.55-1.33,5.2-2.41,7.95-3.25.88-3.36,1.64-6.74,2.3-10.16.39-2.03,1.42-3.74,3.6-4.01h26.44ZM150.27,138.7c10.63,16,34.74,15.05,44.04-1.75,9.83-17.75-3.82-39.54-24.01-38.36-19.78,1.16-31.06,23.5-20.03,40.11Z"/>
  </g>
</svg>