<?xml version="1.0" encoding="UTF-8"?>
<svg id="Capa_1" xmlns="http://www.w3.org/2000/svg" version="1.1" viewBox="0 0 384 384">
  <!-- Generator: Adobe Illustrator 29.8.3, SVG Export Plug-In . SVG Version: 2.1.1 Build 3)  -->
  <defs>
    <style>
      .st0 {
        fill: #010101;
      }
    </style>
  </defs>
  <path class="st0" d="M206.38,0c5.66,1.43,11.64,1.51,17.39,2.47,78.96,13.09,142.42,75.45,156.99,154.14,1.25,6.77,1.7,13.69,3.23,20.39v30.75c-1.93,8.98-2.72,18.16-4.73,27.14-16.78,74.98-79.69,134.2-155.5,146.64-5.76.95-11.73,1.04-17.39,2.47h-29.98l-33.14-6.21C77.17,360.44,23.69,307.13,6.49,240.91L.28,207.75c.65-10.46-.87-21.92,0-32.25C7.98,84.03,84.88,7.21,176.4,0h29.98ZM304.56,114.75H79.72l102.26,102.79c1.9,1.09,14.4,1.04,17.32.75,1.28-.13,2.46.05,3.37-1.13l101.88-102.42ZM70.73,265.5l70.39-70.23-70.39-70.77v141ZM313.55,265.5V124.5l-70.39,70.77,70.39,70.23ZM298.56,269.25l-64.83-64.53-1.53.73-23.94,24.05c-1.74,1.37-3.88,1.38-5.97,1.53-4.49.31-22.19.58-25.34-.95l-24.87-24.62-2.13-.63-63.48,64.42h212.1Z"/>
</svg>