<?xml version="1.0" encoding="UTF-8"?>
<svg id="Capa_2" data-name="Capa 2" xmlns="http://www.w3.org/2000/svg" viewBox="0 0 383.57 319.5">
  <g id="Capa_1-2" data-name="Capa 1">
    <path d="M383.57,154.04v129.5c-2.61,5.22-3.66,10.89-6.87,15.96-6.53,10.32-19.41,18.83-31.69,19.96l-305.42.04c-17.5-.26-39.27-21.25-39.27-38.58v-126.88l180.01,59.9c6.7,2.25,12.99,2.68,19.89,1.15l183.35-61.04Z"/>
    <path d="M383.57,85.93v43.42c-1.48-.2-2.76.33-4.13.73-63.04,18.35-125.04,44.43-188.4,62L.66,128.63c.37-25.38-6.29-52.15,15.77-70.37,4.22-3.48,15.69-9.75,20.94-9.75h89.82c.08,0,1.12-1.04,1.12-1.12v-20.96c0-9.93,15.26-24.7,25.41-25.49,23.72.69,49.56-2.07,73.05-.37,11.73.85,28.79,13.47,28.79,25.86v20.96c0,.08,1.04,1.12,1.12,1.12h89.82c1.41,0,8.52,2.45,10.3,3.17,14.4,5.86,23.34,19.5,26.75,34.25ZM224.13,32.03h-64.37v16.47h64.37v-16.47Z"/>
  </g>
</svg>