<?xml version="1.0" encoding="UTF-8"?>
<svg id="Capa_2" data-name="Capa 2" xmlns="http://www.w3.org/2000/svg" viewBox="0 0 382.95 366.78">
  <defs>
    <style>
      .cls-1 {
        fill: #010101;
      }
    </style>
  </defs>
  <g id="Capa_1-2" data-name="Capa 1">
    <path class="cls-1" d="M.53,172.26C12.24,33.05,170.12-43.52,289.57,26.17c131.78,76.88,122.17,269.5-16.68,332.37-7.52,3.4-31.02,15.27-33.74,1.81-1.43-19.67,1.37-40.88-.27-60.36-.89-10.65-5.02-21.36-12.61-28.91,25.55-2.54,53.61-10.2,69.83-31.51,19.2-25.23,23.45-71.08,7.48-98.68-1.48-2.56-8.86-11.53-9.16-12.57-.56-1.92,2.58-11.44,2.86-14.82.68-8.32-.13-17.46-2.13-25.53-.35-1.41-2.77-9.5-3.25-9.85-3.52-2.57-19.52,2.12-23.96,3.76-10.21,3.77-19.41,9.79-28.67,15.35-31.26-8.52-64.19-8.15-95.48,0-9.37-5.75-18.84-11.77-29.25-15.53-3.83-1.38-21.32-6.49-23.64-3.26-.77,1.07-2.72,8.31-3.16,10.15-3.04,12.8-3.21,26.67,1.62,39.05-19.43,20.66-22.39,48.41-17.62,75.51,7.97,45.31,41.96,64.21,85.01,68.31-3.18,2.97-6.02,6.88-7.86,10.84-1.54,3.3-3.53,13.41-4.86,14.59-2.46,2.21-17.64,4.94-21.25,4.92-32.14-.21-30.97-32.14-56.64-39.16-3.89-1.06-10.05-2.18-13.6.27-5.76,3.97,9.38,12.01,11.87,14.18,13.19,11.51,14.1,29.02,27.3,40.03,14.22,11.87,34.98,12.68,52.33,8.6.04,8.36-.02,16.74-.03,25.1,0,1.97.83,3.58.72,5.84-.86,18.93-24.99,6.33-34.6,1.89C50.08,330.76,6.14,270.36.53,203.7c-.7-8.33-.7-23.11,0-31.44Z"/>
  </g>
</svg>