<?xml version="1.0" encoding="UTF-8"?>
<svg id="Capa_2" data-name="Capa 2" xmlns="http://www.w3.org/2000/svg" viewBox="0 0 510.55 511">
  <defs>
    <style>
      .cls-1 {
        fill: #010101;
      }
    </style>
  </defs>
  <g id="Capa_1-2" data-name="Capa 1">
    <path class="cls-1" d="M234.09,510.67C12.38,493.23-81.82,215.01,84.85,64.8,241.06-75.98,495.25,27.02,510.55,235.39v39.9l-7.48,41.9c-24.05,96.03-103.35,171.14-200.93,189.19l-28.13,4.31c-12.99-.75-27.07,1.01-39.92,0ZM144.04,108.99c-40.82,4.93-38.36,64.64,5.71,64.62,49.29-.03,45.9-70.84-5.71-64.62ZM404.75,386v-123.18c0-11.35-8.48-32.34-15.16-41.71-21.94-30.78-72.22-36.15-100.15-10.68-3.87,3.53-6.26,8.01-9.64,11.31-.88.86-.82,2.18-2.81,1.68v-24.94h-61.88v187.52h61.88v-104.23c0-14.54,7.64-30.68,21.98-35.89,15.42-5.6,32.57-1.3,39.39,14.46,1.31,3.03,4.51,13.63,4.51,16.44v109.22h61.88ZM181.19,386v-186.02c0-.11-1.39-1.5-1.5-1.5h-61.38v187.52h62.88Z"/>
  </g>
</svg>