<?xml version="1.0" encoding="UTF-8"?>
<svg id="Capa_2" data-name="Capa 2" xmlns="http://www.w3.org/2000/svg" viewBox="0 0 700.88 689.12">
  <defs>
    <style>
      .cls-1 {
        fill: #fff;
      }

      .cls-2 {
        fill: #1d4bf4;
      }

      .cls-3 {
        fill: #060606;
      }
    </style>
  </defs>
  <g id="Capa_1-2" data-name="Capa 1">
    <g id="uuid-fe6566fb-5e79-4a71-ba9c-a41e10648e1b" data-name="Capa 1-2">
      <path class="cls-1" d="M689.02,629.02c13.94,2.97,12.34,31.85,11.04,43.04-.93,8.07-4.97,13.36-13.16,14.84-108.6-1-217.48.82-325.8,2.2-108.27,1.38-191.97-56.48-220.07-162.07-29.06,44.69-52.17,94.52-80.66,139.34-3.87,6.09-10.06,19.45-17.45,20.68-9.72,1.62-41.88-16.7-42.89-27.22-.82-8.58,18.28-38.53,23.65-48.15C118.8,440.99,220.62,273.8,316.58,103.6c7.21-5.54,14.87-.62,22.36-.5,17.55.27,35.17-.75,52.68.34,31.4,57.55,66.85,112.97,98.75,170.23,1.8,3.23,13.05,21.89,11.65,23.33-13.57-5.94-24.78-16.32-37.95-23.03-28.32-14.44-58.66-20.15-90.02-23.98l-36.05-62.97c-3.83-2.6-42.58,74.09-47.92,79.05l-40.04,22.93c12.88-1.49,24.34-8.26,37.15-11.82,211.88-58.82,358.41,197.17,206.84,351.84h195-.01ZM232.02,383.02c-120.71,141.11,78.17,334.42,216,204,151.77-143.6-79.47-363.61-216-204h0Z"/>
      <path class="cls-1" d="M385.3,13.73c42.17,42.17-22.4,106.74-64.57,64.57s22.4-106.74,64.57-64.57Z"/>
      <path class="cls-2" d="M448.02,587.02c-137.83,130.42-336.71-62.89-216-204-71.27,140.22,80.01,282.21,216,204Z"/>
      <path class="cls-1" d="M368.01,429.03l-31.52,91.46c-2.4,6.28-8.82,4.52-14.46,4.52l31.52-91.46c2.4-6.28,8.82-4.52,14.46-4.52h0Z"/>
      <path class="cls-1" d="M376.03,505.01c.26-4.06-1.46-10.17,1.97-13.01,3.13-2.59,27.6-10.54,28.03-12,1.13-3.82-1.83-2.91-3.92-4-3.77-1.97-25.03-10.1-25.77-11.3-1.45-2.33.21-8.49-.31-11.68,1.64-1.91,43.31,18.51,45.04,21.98,2.51,5.03.73,7.78-3.13,10.94-3.18,2.61-40.39,20.79-41.91,19.06h0Z"/>
      <path class="cls-1" d="M318.01,453.03c3.08,15.53-15.03,16.66-26.04,23.02-2.04,1.18-5.02-.11-3.96,3.95,1.19,4.53,37.62,10.03,30,25.01-5.81-1.21-43.68-17.85-45.06-19.9-2.03-3.02-1.65-10.53,1.02-13.15,1.45-1.42,32.7-15.95,36.62-17.37,2.49-.9,4.59-2.16,7.42-1.56h0Z"/>
    </g>
    <path class="cls-3" d="M517.15,601.55c124.84-175.53-66.77-399.82-263.2-312.5-14.5-11.19,64.46-32.91,72.73-34.22,201.08-39.97,339.03,211.45,190.47,346.72Z"/>
  </g>
</svg>