<?xml version="1.0" encoding="UTF-8"?>
<svg id="Capa_1" xmlns="http://www.w3.org/2000/svg" version="1.1" viewBox="0 0 384 384">
  <!-- Generator: Adobe Illustrator 29.8.3, SVG Export Plug-In . SVG Version: 2.1.1 Build 3)  -->
  <defs>
    <style>
      .st0 {
        fill: #010101;
      }
    </style>
  </defs>
  <path class="st0" d="M175.39.53c146.73-10.53,252.3,136.92,190.71,272.14-63.56,139.57-259.67,150.22-338.75,18.87C-45.37,170.77,34.75,10.62,175.39.53ZM185.27,77.11c-73.23,7.48-64.36,120.85,11.41,115.04,74.97-5.75,66.59-123.01-11.41-115.04ZM301.16,276.27c-50.04-56.56-145.81-58.92-203.74-13.29-15.62,12.3-29.75,23.31-10.9,41.36,55.6,53.24,143.5,54.93,202.79,6.72,10.92-8.88,24.51-20.48,11.85-34.79h0Z"/>
</svg>